<svg width="215" height="15" viewBox="0 0 215 15" fill="none" xmlns="http://www.w3.org/2000/svg">
<path fill-rule="evenodd" clip-rule="evenodd" d="M11.7178 10.2646C11.9697 9.4502 12.0957 8.54785 12.0957 7.55762C12.0957 6.21582 11.873 5.05273 11.4277 4.06836C10.9883 3.07812 10.3262 2.31055 9.44141 1.76562C8.55664 1.2207 7.44629 0.948242 6.11035 0.948242C4.74512 0.948242 3.61426 1.22363 2.71777 1.77441C1.82715 2.31934 1.16211 3.08691 0.722656 4.07715C0.289062 5.06152 0.0722656 6.21582 0.0722656 7.54004C0.0722656 8.53027 0.195312 9.43262 0.441406 10.2471C0.6875 11.0615 1.05664 11.7617 1.54883 12.3477C2.04688 12.9336 2.6709 13.3848 3.4209 13.7012C4.17676 14.0176 5.06738 14.1758 6.09277 14.1758C7.10059 14.1758 7.97949 14.0176 8.72949 13.7012C9.47949 13.3848 10.1035 12.9365 10.6016 12.3564C11.0996 11.7705 11.4717 11.0732 11.7178 10.2646ZM2.69141 10.1328C2.42188 9.40625 2.28711 8.54785 2.28711 7.55762C2.28711 6.55566 2.42188 5.69727 2.69141 4.98242C2.96094 4.26172 3.37695 3.70801 3.93945 3.32129C4.50781 2.93457 5.23145 2.74121 6.11035 2.74121C7.42285 2.74121 8.37793 3.16895 8.97559 4.02441C9.5791 4.87402 9.88086 6.05176 9.88086 7.55762C9.88086 8.54785 9.74902 9.40625 9.48535 10.1328C9.22168 10.8535 8.81152 11.4102 8.25488 11.8027C7.69824 12.1895 6.97754 12.3828 6.09277 12.3828C5.21387 12.3828 4.49316 12.1895 3.93066 11.8027C3.37402 11.4102 2.96094 10.8535 2.69141 10.1328ZM31.3701 14L34.7275 1.15039H32.6006L30.7549 8.68262C30.6729 9.00488 30.5908 9.35645 30.5088 9.7373C30.4268 10.1182 30.3535 10.4932 30.2891 10.8623C30.2246 11.2314 30.1719 11.5596 30.1309 11.8467C30.1016 11.6357 30.0635 11.3984 30.0166 11.1348C29.9697 10.8711 29.917 10.5986 29.8584 10.3174C29.7998 10.0361 29.7383 9.76074 29.6738 9.49121C29.6152 9.22168 29.5537 8.97852 29.4893 8.76172L27.3535 1.15039H25.2969L23.2051 8.73535C23.1406 8.94629 23.0762 9.18359 23.0117 9.44727C22.9531 9.71094 22.8945 9.98633 22.8359 10.2734C22.7832 10.5547 22.7334 10.833 22.6865 11.1084C22.6396 11.3779 22.6016 11.624 22.5723 11.8467C22.543 11.6299 22.5049 11.3896 22.458 11.126C22.4111 10.8564 22.3584 10.5811 22.2998 10.2998C22.2471 10.0186 22.1885 9.74023 22.124 9.46484C22.0654 9.18359 22.0068 8.92285 21.9482 8.68262L20.0938 1.15039H17.9756L21.3242 14H23.6182L25.7275 6.30957C25.7803 6.11035 25.8389 5.88184 25.9033 5.62402C25.9678 5.36035 26.0264 5.09668 26.0791 4.83301C26.1377 4.56348 26.1875 4.31738 26.2285 4.09473C26.2695 3.87207 26.2959 3.69922 26.3076 3.57617C26.3252 3.69922 26.3545 3.875 26.3955 4.10352C26.4424 4.32617 26.4951 4.57227 26.5537 4.8418C26.6182 5.11133 26.6826 5.375 26.7471 5.63281C26.8115 5.89062 26.8701 6.11328 26.9229 6.30078L29.0674 14H31.3701ZM43.2529 10.4316L44.5098 14H46.751L41.9785 1.09766H39.6406L34.8594 14H37.083L38.3398 10.4316H43.2529ZM41.4863 5.10547L42.708 8.62109H38.9287L40.1592 5.10547C40.2002 4.96484 40.2588 4.76562 40.335 4.50781C40.417 4.25 40.499 3.97461 40.5811 3.68164C40.6689 3.38281 40.7422 3.11328 40.8008 2.87305C40.8594 3.07227 40.9326 3.31836 41.0205 3.61133C41.1084 3.89844 41.1963 4.18262 41.2842 4.46387C41.3721 4.73926 41.4395 4.95312 41.4863 5.10547ZM55.3027 12.4707C55.6777 11.9199 55.8652 11.2637 55.8652 10.502C55.8652 9.82812 55.7334 9.26855 55.4697 8.82324C55.2061 8.37207 54.8252 7.98535 54.3271 7.66309C53.835 7.34082 53.2344 7.0332 52.5254 6.74023C51.9102 6.48242 51.4062 6.24805 51.0137 6.03711C50.627 5.82617 50.3398 5.59473 50.1523 5.34277C49.9707 5.08496 49.8799 4.76855 49.8799 4.39355C49.8799 4.05957 49.959 3.77246 50.1172 3.53223C50.2812 3.28613 50.5186 3.0957 50.8291 2.96094C51.1396 2.82617 51.5176 2.75879 51.9629 2.75879C52.4785 2.75879 52.9824 2.82324 53.4746 2.95215C53.9727 3.08105 54.4854 3.25391 55.0127 3.4707L55.6807 1.77441C55.1064 1.5166 54.5205 1.31738 53.9229 1.17676C53.3311 1.03613 52.6982 0.96582 52.0244 0.96582C51.1748 0.96582 50.4307 1.10352 49.792 1.37891C49.1592 1.6543 48.667 2.0498 48.3154 2.56543C47.9697 3.08105 47.7969 3.70215 47.7969 4.42871C47.7969 4.97363 47.8818 5.44824 48.0518 5.85254C48.2275 6.25098 48.4648 6.59668 48.7637 6.88965C49.0625 7.18262 49.4023 7.4375 49.7832 7.6543C50.1699 7.87109 50.5742 8.06445 50.9961 8.23438C51.6172 8.48633 52.1328 8.72363 52.543 8.94629C52.959 9.16309 53.2695 9.40332 53.4746 9.66699C53.6797 9.93066 53.7822 10.2529 53.7822 10.6338C53.7822 10.9912 53.6943 11.3047 53.5186 11.5742C53.3428 11.8379 53.0732 12.043 52.71 12.1895C52.3525 12.3301 51.9014 12.4004 51.3564 12.4004C50.6885 12.4004 50.0322 12.3096 49.3877 12.1279C48.7432 11.9404 48.1602 11.7324 47.6387 11.5039V13.4902C47.9492 13.6367 48.292 13.7627 48.667 13.8682C49.0479 13.9678 49.4521 14.0439 49.8799 14.0967C50.3076 14.1494 50.7559 14.1758 51.2246 14.1758C52.1855 14.1758 53.0117 14.0293 53.7031 13.7363C54.4004 13.4434 54.9336 13.0215 55.3027 12.4707ZM66.377 14H68.4775V1.15039H66.377V6.40625H60.4531V1.15039H58.3438V14H60.4531V8.19922H66.377V14ZM71.8789 1.15039V14H73.9883V1.15039H71.8789ZM85.5107 14H88.1035V1.15039H86.1787V7.90918C86.1846 8.2959 86.1934 8.69727 86.2051 9.11328C86.2227 9.52344 86.2402 9.92188 86.2578 10.3086C86.2754 10.6953 86.29 11.0381 86.3018 11.3369H86.2402L79.9561 1.15039H77.3809V14H79.2969V7.28516C79.2852 6.86328 79.2705 6.44727 79.2529 6.03711C79.2412 5.62695 79.2236 5.22852 79.2002 4.8418C79.1826 4.45508 79.1621 4.08887 79.1387 3.74316H79.2178L85.5107 14ZM101.463 7.02148H96.6641V8.82324H99.3799V12.1367C99.0928 12.2012 98.7793 12.2598 98.4395 12.3125C98.0996 12.3652 97.6865 12.3916 97.2002 12.3916C96.2275 12.3916 95.4336 12.1924 94.8184 11.7939C94.209 11.3896 93.7607 10.8271 93.4736 10.1064C93.1865 9.38574 93.043 8.54785 93.043 7.59277C93.043 6.6084 93.2217 5.75586 93.5791 5.03516C93.9365 4.30859 94.4463 3.74609 95.1084 3.34766C95.7764 2.94922 96.5703 2.75 97.4902 2.75C98.0703 2.75 98.6299 2.82031 99.1689 2.96094C99.708 3.10156 100.194 3.27441 100.628 3.47949L101.366 1.73926C100.821 1.49902 100.221 1.31152 99.5645 1.17676C98.9141 1.03613 98.2402 0.96582 97.543 0.96582C96.125 0.96582 94.918 1.23828 93.9219 1.7832C92.9258 2.32227 92.167 3.08691 91.6455 4.07715C91.124 5.06152 90.8633 6.22461 90.8633 7.56641C90.8633 8.96094 91.0977 10.1533 91.5664 11.1436C92.0352 12.1279 92.7207 12.8809 93.623 13.4023C94.5312 13.918 95.6387 14.1758 96.9453 14.1758C97.8418 14.1758 98.6504 14.1143 99.3711 13.9912C100.092 13.8682 100.789 13.6953 101.463 13.4727V7.02148ZM111.061 3.26855L114.761 14H116.624L120.465 3.28613H120.535C120.523 3.53223 120.506 3.86035 120.482 4.27051C120.465 4.68066 120.447 5.11426 120.43 5.57129C120.418 6.02832 120.412 6.45312 120.412 6.8457V14H122.425V1.15039H119.472L115.789 11.4072H115.736L112.177 1.15039H109.215V14H111.131V6.95117C111.131 6.51758 111.122 6.06348 111.104 5.58887C111.087 5.11426 111.066 4.66895 111.043 4.25293C111.02 3.83691 110.999 3.50879 110.981 3.26855H111.061ZM132.515 10.4316L133.771 14H136.013L131.24 1.09766H128.902L124.121 14H126.345L127.602 10.4316H132.515ZM130.748 5.10547L131.97 8.62109H128.19L129.421 5.10547C129.462 4.96484 129.521 4.76562 129.597 4.50781C129.679 4.25 129.761 3.97461 129.843 3.68164C129.931 3.38281 130.004 3.11328 130.062 2.87305C130.121 3.07227 130.194 3.31836 130.282 3.61133C130.37 3.89844 130.458 4.18262 130.546 4.46387C130.634 4.73926 130.701 4.95312 130.748 5.10547ZM141.532 3.09277C142.019 2.87012 142.569 2.75879 143.185 2.75879C143.706 2.75879 144.21 2.83496 144.696 2.9873C145.183 3.13965 145.648 3.32129 146.094 3.53223L146.832 1.79199C146.299 1.52832 145.719 1.32617 145.092 1.18555C144.471 1.03906 143.838 0.96582 143.193 0.96582C142.215 0.96582 141.345 1.12695 140.583 1.44922C139.827 1.76562 139.191 2.21973 138.676 2.81152C138.16 3.39746 137.768 4.09473 137.498 4.90332C137.229 5.71191 137.094 6.60254 137.094 7.5752C137.094 8.90527 137.305 10.0654 137.727 11.0557C138.154 12.0459 138.799 12.8135 139.66 13.3584C140.527 13.9033 141.617 14.1758 142.93 14.1758C143.627 14.1758 144.242 14.1289 144.775 14.0352C145.309 13.9414 145.836 13.792 146.357 13.5869V11.7939C145.807 11.9756 145.273 12.1191 144.758 12.2246C144.242 12.3301 143.712 12.3828 143.167 12.3828C142.288 12.3828 141.562 12.1924 140.987 11.8115C140.413 11.4248 139.985 10.874 139.704 10.1592C139.423 9.43848 139.282 8.58008 139.282 7.58398C139.282 6.83984 139.37 6.17188 139.546 5.58008C139.722 4.98242 139.977 4.47559 140.311 4.05957C140.645 3.6377 141.052 3.31543 141.532 3.09277ZM157.15 14H159.251V1.15039H157.15V6.40625H151.227V1.15039H149.117V14H151.227V8.19922H157.15V14ZM164.762 1.15039H162.652V14H164.762V1.15039ZM176.284 14H178.877V1.15039H176.952V7.90918C176.958 8.2959 176.967 8.69727 176.979 9.11328C176.996 9.52344 177.014 9.92188 177.031 10.3086C177.049 10.6953 177.063 11.0381 177.075 11.3369H177.014L170.729 1.15039H168.154V14H170.07V7.28516C170.059 6.86328 170.044 6.44727 170.026 6.03711C170.015 5.62695 169.997 5.22852 169.974 4.8418C169.956 4.45508 169.936 4.08887 169.912 3.74316H169.991L176.284 14ZM182.252 14H189.529V12.2158H184.361V8.18164H189.204V6.41504H184.361V2.92578H189.529V1.15039H182.252V14ZM206.293 3.29289L199.929 9.65685C199.538 10.0474 199.538 10.6805 199.929 11.0711C200.319 11.4616 200.953 11.4616 201.343 11.0711L206.414 6H207.586L212.657 11.0711C213.047 11.4616 213.681 11.4616 214.071 11.0711C214.462 10.6805 214.462 10.0474 214.071 9.65685L207.707 3.29289C207.317 2.90237 206.683 2.90237 206.293 3.29289Z" fill="#FFDF00"/>
</svg>
