<svg width="216" height="20" viewBox="0 0 216 20" fill="none" xmlns="http://www.w3.org/2000/svg">
<path d="M207.293 15.7071C207.683 16.0976 208.317 16.0976 208.707 15.7071L215.071 9.34315C215.462 8.95262 215.462 8.31946 215.071 7.92893C214.681 7.53841 214.047 7.53841 213.657 7.92893L208 13.5858L202.343 7.92893C201.953 7.53841 201.319 7.53841 200.929 7.92893C200.538 8.31946 200.538 8.95262 200.929 9.34315L207.293 15.7071ZM207 13V15H209V13H207Z" fill="#221F1F"/>
<path d="M13.0957 12.5576C13.0957 13.5479 12.9697 14.4502 12.7178 15.2646C12.4717 16.0732 12.0996 16.7705 11.6016 17.3564C11.1035 17.9365 10.4795 18.3848 9.72949 18.7012C8.97949 19.0176 8.10059 19.1758 7.09277 19.1758C6.06738 19.1758 5.17676 19.0176 4.4209 18.7012C3.6709 18.3848 3.04688 17.9336 2.54883 17.3477C2.05664 16.7617 1.6875 16.0615 1.44141 15.2471C1.19531 14.4326 1.07227 13.5303 1.07227 12.54C1.07227 11.2158 1.28906 10.0615 1.72266 9.07715C2.16211 8.08691 2.82715 7.31934 3.71777 6.77441C4.61426 6.22363 5.74512 5.94824 7.11035 5.94824C8.44629 5.94824 9.55664 6.2207 10.4414 6.76562C11.3262 7.31055 11.9883 8.07812 12.4277 9.06836C12.873 10.0527 13.0957 11.2158 13.0957 12.5576ZM3.28711 12.5576C3.28711 13.5479 3.42188 14.4062 3.69141 15.1328C3.96094 15.8535 4.37402 16.4102 4.93066 16.8027C5.49316 17.1895 6.21387 17.3828 7.09277 17.3828C7.97754 17.3828 8.69824 17.1895 9.25488 16.8027C9.81152 16.4102 10.2217 15.8535 10.4854 15.1328C10.749 14.4062 10.8809 13.5479 10.8809 12.5576C10.8809 11.0518 10.5791 9.87402 9.97559 9.02441C9.37793 8.16895 8.42285 7.74121 7.11035 7.74121C6.23145 7.74121 5.50781 7.93457 4.93945 8.32129C4.37695 8.70801 3.96094 9.26172 3.69141 9.98242C3.42188 10.6973 3.28711 11.5557 3.28711 12.5576ZM35.7275 6.15039L32.3701 19H30.0674L27.9229 11.3008C27.8701 11.1133 27.8115 10.8906 27.7471 10.6328C27.6826 10.375 27.6182 10.1113 27.5537 9.8418C27.4951 9.57227 27.4424 9.32617 27.3955 9.10352C27.3545 8.875 27.3252 8.69922 27.3076 8.57617C27.2959 8.69922 27.2695 8.87207 27.2285 9.09473C27.1875 9.31738 27.1377 9.56348 27.0791 9.83301C27.0264 10.0967 26.9678 10.3604 26.9033 10.624C26.8389 10.8818 26.7803 11.1104 26.7275 11.3096L24.6182 19H22.3242L18.9756 6.15039H21.0938L22.9482 13.6826C23.0068 13.9229 23.0654 14.1836 23.124 14.4648C23.1885 14.7402 23.2471 15.0186 23.2998 15.2998C23.3584 15.5811 23.4111 15.8564 23.458 16.126C23.5049 16.3896 23.543 16.6299 23.5723 16.8467C23.6016 16.624 23.6396 16.3779 23.6865 16.1084C23.7334 15.833 23.7832 15.5547 23.8359 15.2734C23.8945 14.9863 23.9531 14.7109 24.0117 14.4473C24.0762 14.1836 24.1406 13.9463 24.2051 13.7354L26.2969 6.15039H28.3535L30.4893 13.7617C30.5537 13.9785 30.6152 14.2217 30.6738 14.4912C30.7383 14.7607 30.7998 15.0361 30.8584 15.3174C30.917 15.5986 30.9697 15.8711 31.0166 16.1348C31.0635 16.3984 31.1016 16.6357 31.1309 16.8467C31.1719 16.5596 31.2246 16.2314 31.2891 15.8623C31.3535 15.4932 31.4268 15.1182 31.5088 14.7373C31.5908 14.3564 31.6729 14.0049 31.7549 13.6826L33.6006 6.15039H35.7275ZM45.5098 19L44.2529 15.4316H39.3398L38.083 19H35.8594L40.6406 6.09766H42.9785L47.751 19H45.5098ZM43.708 13.6211L42.4863 10.1055C42.4395 9.95312 42.3721 9.73926 42.2842 9.46387C42.1963 9.18262 42.1084 8.89844 42.0205 8.61133C41.9326 8.31836 41.8594 8.07227 41.8008 7.87305C41.7422 8.11328 41.6689 8.38281 41.5811 8.68164C41.499 8.97461 41.417 9.25 41.335 9.50781C41.2588 9.76562 41.2002 9.96484 41.1592 10.1055L39.9287 13.6211H43.708ZM56.8652 15.502C56.8652 16.2637 56.6777 16.9199 56.3027 17.4707C55.9336 18.0215 55.4004 18.4434 54.7031 18.7363C54.0117 19.0293 53.1855 19.1758 52.2246 19.1758C51.7559 19.1758 51.3076 19.1494 50.8799 19.0967C50.4521 19.0439 50.0479 18.9678 49.667 18.8682C49.292 18.7627 48.9492 18.6367 48.6387 18.4902V16.5039C49.1602 16.7324 49.7432 16.9404 50.3877 17.1279C51.0322 17.3096 51.6885 17.4004 52.3564 17.4004C52.9014 17.4004 53.3525 17.3301 53.71 17.1895C54.0732 17.043 54.3428 16.8379 54.5186 16.5742C54.6943 16.3047 54.7822 15.9912 54.7822 15.6338C54.7822 15.2529 54.6797 14.9307 54.4746 14.667C54.2695 14.4033 53.959 14.1631 53.543 13.9463C53.1328 13.7236 52.6172 13.4863 51.9961 13.2344C51.5742 13.0645 51.1699 12.8711 50.7832 12.6543C50.4023 12.4375 50.0625 12.1826 49.7637 11.8896C49.4648 11.5967 49.2275 11.251 49.0518 10.8525C48.8818 10.4482 48.7969 9.97363 48.7969 9.42871C48.7969 8.70215 48.9697 8.08105 49.3154 7.56543C49.667 7.0498 50.1592 6.6543 50.792 6.37891C51.4307 6.10352 52.1748 5.96582 53.0244 5.96582C53.6982 5.96582 54.3311 6.03613 54.9229 6.17676C55.5205 6.31738 56.1064 6.5166 56.6807 6.77441L56.0127 8.4707C55.4854 8.25391 54.9727 8.08105 54.4746 7.95215C53.9824 7.82324 53.4785 7.75879 52.9629 7.75879C52.5176 7.75879 52.1396 7.82617 51.8291 7.96094C51.5186 8.0957 51.2812 8.28613 51.1172 8.53223C50.959 8.77246 50.8799 9.05957 50.8799 9.39355C50.8799 9.76855 50.9707 10.085 51.1523 10.3428C51.3398 10.5947 51.627 10.8262 52.0137 11.0371C52.4062 11.248 52.9102 11.4824 53.5254 11.7402C54.2344 12.0332 54.835 12.3408 55.3271 12.6631C55.8252 12.9854 56.2061 13.3721 56.4697 13.8232C56.7334 14.2686 56.8652 14.8281 56.8652 15.502ZM69.4775 19H67.377V13.1992H61.4531V19H59.3438V6.15039H61.4531V11.4062H67.377V6.15039H69.4775V19ZM72.8789 19V6.15039H74.9883V19H72.8789ZM89.1035 19H86.5107L80.2178 8.74316H80.1387C80.1621 9.08887 80.1826 9.45508 80.2002 9.8418C80.2236 10.2285 80.2412 10.627 80.2529 11.0371C80.2705 11.4473 80.2852 11.8633 80.2969 12.2852V19H78.3809V6.15039H80.9561L87.2402 16.3369H87.3018C87.29 16.0381 87.2754 15.6953 87.2578 15.3086C87.2402 14.9219 87.2227 14.5234 87.2051 14.1133C87.1934 13.6973 87.1846 13.2959 87.1787 12.9092V6.15039H89.1035V19ZM97.6641 12.0215H102.463V18.4727C101.789 18.6953 101.092 18.8682 100.371 18.9912C99.6504 19.1143 98.8418 19.1758 97.9453 19.1758C96.6387 19.1758 95.5312 18.918 94.623 18.4023C93.7207 17.8809 93.0352 17.1279 92.5664 16.1436C92.0977 15.1533 91.8633 13.9609 91.8633 12.5664C91.8633 11.2246 92.124 10.0615 92.6455 9.07715C93.167 8.08691 93.9258 7.32227 94.9219 6.7832C95.918 6.23828 97.125 5.96582 98.543 5.96582C99.2402 5.96582 99.9141 6.03613 100.564 6.17676C101.221 6.31152 101.821 6.49902 102.366 6.73926L101.628 8.47949C101.194 8.27441 100.708 8.10156 100.169 7.96094C99.6299 7.82031 99.0703 7.75 98.4902 7.75C97.5703 7.75 96.7764 7.94922 96.1084 8.34766C95.4463 8.74609 94.9365 9.30859 94.5791 10.0352C94.2217 10.7559 94.043 11.6084 94.043 12.5928C94.043 13.5479 94.1865 14.3857 94.4736 15.1064C94.7607 15.8271 95.209 16.3896 95.8184 16.7939C96.4336 17.1924 97.2275 17.3916 98.2002 17.3916C98.6865 17.3916 99.0996 17.3652 99.4395 17.3125C99.7793 17.2598 100.093 17.2012 100.38 17.1367V13.8232H97.6641V12.0215ZM115.761 19L112.061 8.26855H111.981C111.999 8.50879 112.02 8.83691 112.043 9.25293C112.066 9.66895 112.087 10.1143 112.104 10.5889C112.122 11.0635 112.131 11.5176 112.131 11.9512V19H110.215V6.15039H113.177L116.736 16.4072H116.789L120.472 6.15039H123.425V19H121.412V11.8457C121.412 11.4531 121.418 11.0283 121.43 10.5713C121.447 10.1143 121.465 9.68066 121.482 9.27051C121.506 8.86035 121.523 8.53223 121.535 8.28613H121.465L117.624 19H115.761ZM134.771 19L133.515 15.4316H128.602L127.345 19H125.121L129.902 6.09766H132.24L137.013 19H134.771ZM132.97 13.6211L131.748 10.1055C131.701 9.95312 131.634 9.73926 131.546 9.46387C131.458 9.18262 131.37 8.89844 131.282 8.61133C131.194 8.31836 131.121 8.07227 131.062 7.87305C131.004 8.11328 130.931 8.38281 130.843 8.68164C130.761 8.97461 130.679 9.25 130.597 9.50781C130.521 9.76562 130.462 9.96484 130.421 10.1055L129.19 13.6211H132.97ZM144.185 7.75879C143.569 7.75879 143.019 7.87012 142.532 8.09277C142.052 8.31543 141.645 8.6377 141.311 9.05957C140.977 9.47559 140.722 9.98242 140.546 10.5801C140.37 11.1719 140.282 11.8398 140.282 12.584C140.282 13.5801 140.423 14.4385 140.704 15.1592C140.985 15.874 141.413 16.4248 141.987 16.8115C142.562 17.1924 143.288 17.3828 144.167 17.3828C144.712 17.3828 145.242 17.3301 145.758 17.2246C146.273 17.1191 146.807 16.9756 147.357 16.7939V18.5869C146.836 18.792 146.309 18.9414 145.775 19.0352C145.242 19.1289 144.627 19.1758 143.93 19.1758C142.617 19.1758 141.527 18.9033 140.66 18.3584C139.799 17.8135 139.154 17.0459 138.727 16.0557C138.305 15.0654 138.094 13.9053 138.094 12.5752C138.094 11.6025 138.229 10.7119 138.498 9.90332C138.768 9.09473 139.16 8.39746 139.676 7.81152C140.191 7.21973 140.827 6.76562 141.583 6.44922C142.345 6.12695 143.215 5.96582 144.193 5.96582C144.838 5.96582 145.471 6.03906 146.092 6.18555C146.719 6.32617 147.299 6.52832 147.832 6.79199L147.094 8.53223C146.648 8.32129 146.183 8.13965 145.696 7.9873C145.21 7.83496 144.706 7.75879 144.185 7.75879ZM160.251 19H158.15V13.1992H152.227V19H150.117V6.15039H152.227V11.4062H158.15V6.15039H160.251V19ZM163.652 19V6.15039H165.762V19H163.652ZM179.877 19H177.284L170.991 8.74316H170.912C170.936 9.08887 170.956 9.45508 170.974 9.8418C170.997 10.2285 171.015 10.627 171.026 11.0371C171.044 11.4473 171.059 11.8633 171.07 12.2852V19H169.154V6.15039H171.729L178.014 16.3369H178.075C178.063 16.0381 178.049 15.6953 178.031 15.3086C178.014 14.9219 177.996 14.5234 177.979 14.1133C177.967 13.6973 177.958 13.2959 177.952 12.9092V6.15039H179.877V19ZM190.529 19H183.252V6.15039H190.529V7.92578H185.361V11.415H190.204V13.1816H185.361V17.2158H190.529V19Z" fill="#221F1F"/>
</svg>
