<svg width="30" height="27" viewBox="0 0 30 27" fill="none" xmlns="http://www.w3.org/2000/svg">
<path d="M13.2629 23.566C13.2629 24.909 12.1724 26 10.8243 26C9.47627 26 8.38574 24.909 8.38574 23.566C8.38574 22.2231 9.47627 21.1321 10.8243 21.1321C12.1724 21.1321 13.2629 22.2231 13.2629 23.566Z" stroke="#221F1F" stroke-width="2"/>
<path d="M26.0354 23.566C26.0354 24.909 24.9449 26 23.5968 26C22.2487 26 21.1582 24.909 21.1582 23.566C21.1582 22.2231 22.2487 21.1321 23.5968 21.1321C24.9449 21.1321 26.0354 22.2231 26.0354 23.566Z" stroke="#221F1F" stroke-width="2"/>
<path d="M6.40351 5.90566H27.6903C28.3498 5.90566 28.8287 6.53289 28.655 7.16911L26.2538 15.9616C26.135 16.3965 25.7399 16.6981 25.2891 16.6981H9.65764C9.19085 16.6981 8.78615 16.3752 8.68257 15.92L6.40351 5.90566ZM6.40351 5.90566L5.1438 1.7123C5.01679 1.28949 4.62755 1 4.18608 1H1" stroke="#221F1F" stroke-width="2" stroke-linecap="round"/>
</svg>
