<svg width="24" height="22" viewBox="0 0 24 22" fill="none" xmlns="http://www.w3.org/2000/svg">
<path fill-rule="evenodd" clip-rule="evenodd" d="M8.74947 20.3704C9.39374 20.3704 9.91231 19.8452 9.91231 19.2019C9.91231 18.5587 9.39374 18.0335 8.74947 18.0335C8.10519 18.0335 7.58663 18.5587 7.58663 19.2019C7.58663 19.8452 8.10519 20.3704 8.74947 20.3704ZM8.74947 22C10.2845 22 11.5289 20.7473 11.5289 19.2019C11.5289 17.6566 10.2845 16.4039 8.74947 16.4039C7.21441 16.4039 5.97 17.6566 5.97 19.2019C5.97 20.7473 7.21441 22 8.74947 22Z" fill="#FFDF00"/>
<path fill-rule="evenodd" clip-rule="evenodd" d="M19.0736 20.3704C19.7179 20.3704 20.2365 19.8452 20.2365 19.2019C20.2365 18.5587 19.7179 18.0335 19.0736 18.0335C18.4294 18.0335 17.9108 18.5587 17.9108 19.2019C17.9108 19.8452 18.4294 20.3704 19.0736 20.3704ZM19.0736 22C20.6087 22 21.8531 20.7473 21.8531 19.2019C21.8531 17.6566 20.6087 16.4039 19.0736 16.4039C17.5386 16.4039 16.2942 17.6566 16.2942 19.2019C16.2942 20.7473 17.5386 22 19.0736 22Z" fill="#FFDF00"/>
<path fill-rule="evenodd" clip-rule="evenodd" d="M0 0.814822C0 0.364808 0.361895 0 0.808314 0H3.38367C4.09736 0 4.72661 0.471765 4.93195 1.16079L5.77723 3.99724H22.3825C23.4486 3.99724 24.2229 5.0194 23.942 6.05621L22.0011 13.2205C21.8091 13.9292 21.1704 14.4208 20.4415 14.4208H7.80641C7.05178 14.4208 6.39754 13.8945 6.23008 13.1528L4.39399 5.01992L3.38367 1.62964H0.808314C0.361895 1.62964 0 1.26484 0 0.814822ZM6.18899 5.62688L7.80641 12.7912L20.4415 12.7912L22.3825 5.62688H6.18899Z" fill="#FFDF00"/>
</svg>
