<svg width="111" height="20" viewBox="0 0 111 20" fill="none" xmlns="http://www.w3.org/2000/svg">
<path d="M11.5312 19H9.0791L3.79688 12.4785V19H1.6875V6.15039H3.79688V12.373L8.98242 6.15039H11.2852L6.09961 12.3555L11.5312 19ZM21.1992 19L19.9424 15.4316H15.0293L13.7725 19H11.5488L16.3301 6.09766H18.668L23.4404 19H21.1992ZM19.3975 13.6211L18.1758 10.1055C18.1289 9.95312 18.0615 9.73926 17.9736 9.46387C17.8857 9.18262 17.7979 8.89844 17.71 8.61133C17.6221 8.31836 17.5488 8.07227 17.4902 7.87305C17.4316 8.11328 17.3584 8.38281 17.2705 8.68164C17.1885 8.97461 17.1064 9.25 17.0244 9.50781C16.9482 9.76562 16.8896 9.96484 16.8486 10.1055L15.6182 13.6211H19.3975ZM29.5928 19H27.4746V7.94336H23.7129V6.15039H33.3457V7.94336H29.5928V19ZM43.2773 19L42.0205 15.4316H37.1074L35.8506 19H33.627L38.4082 6.09766H40.7461L45.5186 19H43.2773ZM41.4756 13.6211L40.2539 10.1055C40.207 9.95312 40.1396 9.73926 40.0518 9.46387C39.9639 9.18262 39.876 8.89844 39.7881 8.61133C39.7002 8.31836 39.627 8.07227 39.5684 7.87305C39.5098 8.11328 39.4365 8.38281 39.3486 8.68164C39.2666 8.97461 39.1846 9.25 39.1025 9.50781C39.0264 9.76562 38.9678 9.96484 38.9268 10.1055L37.6963 13.6211H41.4756ZM56.874 19H54.7646V7.94336H51.1084C51.0322 8.54688 50.9502 9.19141 50.8623 9.87695C50.7744 10.5566 50.6836 11.2393 50.5898 11.9248C50.4961 12.6104 50.3994 13.2607 50.2998 13.876C50.2061 14.4912 50.1094 15.0332 50.0098 15.502C49.8574 16.2871 49.6582 16.9551 49.4121 17.5059C49.1719 18.0508 48.8467 18.4668 48.4365 18.7539C48.0264 19.041 47.4902 19.1846 46.8281 19.1846C46.6055 19.1846 46.3887 19.1641 46.1777 19.123C45.9668 19.0879 45.7764 19.041 45.6064 18.9824V17.2422C45.7471 17.2949 45.8965 17.3418 46.0547 17.3828C46.2188 17.418 46.3916 17.4355 46.5732 17.4355C46.8779 17.4355 47.1211 17.3242 47.3027 17.1016C47.4902 16.873 47.6455 16.5508 47.7686 16.1348C47.8916 15.7129 48.0088 15.2148 48.1201 14.6406C48.1846 14.2949 48.2637 13.8379 48.3574 13.2695C48.4512 12.6953 48.5537 12.0332 48.665 11.2832C48.7764 10.5332 48.8906 9.72461 49.0078 8.85742C49.1309 7.98438 49.248 7.08203 49.3594 6.15039H56.874V19ZM71.666 12.5576C71.666 13.5479 71.54 14.4502 71.2881 15.2646C71.042 16.0732 70.6699 16.7705 70.1719 17.3564C69.6738 17.9365 69.0498 18.3848 68.2998 18.7012C67.5498 19.0176 66.6709 19.1758 65.6631 19.1758C64.6377 19.1758 63.7471 19.0176 62.9912 18.7012C62.2412 18.3848 61.6172 17.9336 61.1191 17.3477C60.627 16.7617 60.2578 16.0615 60.0117 15.2471C59.7656 14.4326 59.6426 13.5303 59.6426 12.54C59.6426 11.2158 59.8594 10.0615 60.293 9.07715C60.7324 8.08691 61.3975 7.31934 62.2881 6.77441C63.1846 6.22363 64.3154 5.94824 65.6807 5.94824C67.0166 5.94824 68.127 6.2207 69.0117 6.76562C69.8965 7.31055 70.5586 8.07812 70.998 9.06836C71.4434 10.0527 71.666 11.2158 71.666 12.5576ZM61.8574 12.5576C61.8574 13.5479 61.9922 14.4062 62.2617 15.1328C62.5312 15.8535 62.9443 16.4102 63.501 16.8027C64.0635 17.1895 64.7842 17.3828 65.6631 17.3828C66.5479 17.3828 67.2686 17.1895 67.8252 16.8027C68.3818 16.4102 68.792 15.8535 69.0557 15.1328C69.3193 14.4062 69.4512 13.5479 69.4512 12.5576C69.4512 11.0518 69.1494 9.87402 68.5459 9.02441C67.9482 8.16895 66.9932 7.74121 65.6807 7.74121C64.8018 7.74121 64.0781 7.93457 63.5098 8.32129C62.9473 8.70801 62.5312 9.26172 62.2617 9.98242C61.9922 10.6973 61.8574 11.5557 61.8574 12.5576ZM82.0986 6.15039V7.94336H76.5352V19H74.4258V6.15039H82.0986Z" fill="#221F1F"/>
<path d="M102.293 16.7071C102.683 17.0976 103.317 17.0976 103.707 16.7071L110.071 10.3431C110.462 9.95262 110.462 9.31946 110.071 8.92893C109.681 8.53841 109.047 8.53841 108.657 8.92893L103 14.5858L97.3431 8.92893C96.9526 8.53841 96.3195 8.53841 95.9289 8.92893C95.5384 9.31946 95.5384 9.95262 95.9289 10.3431L102.293 16.7071ZM102 14V16H104V14H102Z" fill="#221F1F"/>
</svg>
